<?xml version="1.0" encoding="utf-8"?>
<!-- Generator: Adobe Illustrator 19.2.1, SVG Export Plug-In . SVG Version: 6.00 Build 0)  -->
<svg version="1.1" id="Ebene_1" xmlns="http://www.w3.org/2000/svg" xmlns:xlink="http://www.w3.org/1999/xlink" x="0px" y="0px"
	 viewBox="0 0 566.9 566.9" style="enable-background:new 0 0 566.9 566.9;" xml:space="preserve">
<style type="text/css">
	.st0{fill:#1179BF;}
</style>
<g>
	<path class="st0" d="M562.1,283.5c0-154-124.9-278.6-278.6-278.6C129.5,4.9,4.9,129.7,4.9,283.5c0,154,124.9,278.6,278.6,278.6
		S562.1,437.3,562.1,283.5 M62.9,162.2h135.7L86.7,438.8h394.6c-46,58.6-117.6,96.1-198,96.1c-139,0-251.7-112.7-251.7-251.7
		C31.8,239.5,43,198.2,62.9,162.2 M444.7,282.5v-34h-68.2v-86.1h127.2c19.9,36,31.1,77.3,31.1,121.3c0,44-11.2,85.3-31.1,121.3
		H181.7l111.7-276.6H85.5c46-58.6,117.6-96.1,198-96.1c80.2,0,151.8,37.6,198,96.1H301.6V380h75.1v-97.5H444.7z"/>
</g>
</svg>
